<?xml version="1.0" encoding="iso-8859-1"?>
<!-- Generator: Adobe Illustrator 23.0.2, SVG Export Plug-In . SVG Version: 6.00 Build 0)  -->
<svg version="1.1" id="Layer_1" xmlns="http://www.w3.org/2000/svg" xmlns:xlink="http://www.w3.org/1999/xlink" x="0px" y="0px"
	 viewBox="0 0 26.6 26.25" style="enable-background:new 0 0 26.6 26.25;" xml:space="preserve">
<g id="house-tick-7_1_">
	<path d="M9.6,23.25v-7h3.869c1.258-2.378,3.753-4,6.631-4c0.878,0,1.717,0.158,2.5,0.436V10l1.4,1.05l1.2-1.6l-5.6-4.2v-4h-2v2.5
		L12.6,0L0,9.45l1.2,1.6L2.6,10v13.25h-2v1h13.51c-0.238-0.316-0.455-0.648-0.641-1H9.6z" fill="#34B0BE"/>
	<path d="M20.1,13.25c-3.59,0-6.5,2.91-6.5,6.5s2.91,6.5,6.5,6.5c3.59,0,6.5-2.91,6.5-6.5S23.69,13.25,20.1,13.25z M18.686,22.932
		l-2.829-2.828l0.707-0.707l2.122,2.121l4.95-4.949l0.707,0.707L18.686,22.932z" fill="#34B0BE"/>
</g>
</svg>
